<mxfile host="Electron" modified="2023-09-28T16:49:50.969Z" agent="Mozilla/5.0 (Windows NT 10.0; Win64; x64) AppleWebKit/537.36 (KHTML, like Gecko) draw.io/21.8.2 Chrome/114.0.5735.289 Electron/25.8.1 Safari/537.36" etag="C9unDMi5CuGhp1mqT7Qz" version="21.8.2" type="device">
  <diagram name="Page-1" id="5f0bae14-7c28-e335-631c-24af17079c00">
    <mxGraphModel dx="1219" dy="769" grid="1" gridSize="10" guides="1" tooltips="1" connect="1" arrows="1" fold="1" page="1" pageScale="1" pageWidth="1100" pageHeight="850" background="none" math="0" shadow="0">
      <root>
        <mxCell id="0" />
        <mxCell id="1" parent="0" />
        <mxCell id="t32K_nqp5lFoHQ5uEv4J-34" value="" style="rounded=0;whiteSpace=wrap;html=1;fillColor=none;strokeColor=default;" parent="1" vertex="1">
          <mxGeometry x="120" y="150" width="760" height="440" as="geometry" />
        </mxCell>
        <mxCell id="RMepHzUNi7ZDpXy9hhpQ-1" style="rounded=0;orthogonalLoop=1;jettySize=auto;html=1;exitX=0;exitY=0;exitDx=0;exitDy=0;entryX=0.5;entryY=1;entryDx=0;entryDy=0;" parent="1" source="t32K_nqp5lFoHQ5uEv4J-1" target="t32K_nqp5lFoHQ5uEv4J-5" edge="1">
          <mxGeometry relative="1" as="geometry" />
        </mxCell>
        <mxCell id="7G6fiu3_6PxhdW2tJC55-10" style="edgeStyle=none;rounded=0;orthogonalLoop=1;jettySize=auto;html=1;exitX=1;exitY=0.5;exitDx=0;exitDy=0;entryX=0;entryY=0.5;entryDx=0;entryDy=0;startArrow=classic;startFill=1;" edge="1" parent="1" source="t32K_nqp5lFoHQ5uEv4J-1" target="t32K_nqp5lFoHQ5uEv4J-4">
          <mxGeometry relative="1" as="geometry" />
        </mxCell>
        <mxCell id="t32K_nqp5lFoHQ5uEv4J-1" value="&lt;font style=&quot;font-size: 11px;&quot;&gt;User Service&lt;/font&gt;" style="rounded=1;whiteSpace=wrap;html=1;" parent="1" vertex="1">
          <mxGeometry x="400" y="360" width="80" height="80" as="geometry" />
        </mxCell>
        <mxCell id="7G6fiu3_6PxhdW2tJC55-8" style="edgeStyle=none;rounded=0;orthogonalLoop=1;jettySize=auto;html=1;exitX=1;exitY=0.5;exitDx=0;exitDy=0;entryX=0;entryY=0.5;entryDx=0;entryDy=0;startArrow=classic;startFill=1;" edge="1" parent="1" source="t32K_nqp5lFoHQ5uEv4J-2" target="t32K_nqp5lFoHQ5uEv4J-7">
          <mxGeometry relative="1" as="geometry" />
        </mxCell>
        <mxCell id="t32K_nqp5lFoHQ5uEv4J-2" value="&lt;font style=&quot;font-size: 11px;&quot;&gt;Image&amp;nbsp;Service&lt;/font&gt;" style="rounded=1;whiteSpace=wrap;html=1;" parent="1" vertex="1">
          <mxGeometry x="600" y="320" width="80" height="80" as="geometry" />
        </mxCell>
        <mxCell id="t32K_nqp5lFoHQ5uEv4J-9" style="edgeStyle=orthogonalEdgeStyle;rounded=0;orthogonalLoop=1;jettySize=auto;html=1;exitX=0;exitY=0.5;exitDx=0;exitDy=0;entryX=1;entryY=0.5;entryDx=0;entryDy=0;startArrow=classic;startFill=1;" parent="1" source="t32K_nqp5lFoHQ5uEv4J-3" target="t32K_nqp5lFoHQ5uEv4J-5" edge="1">
          <mxGeometry relative="1" as="geometry" />
        </mxCell>
        <mxCell id="t32K_nqp5lFoHQ5uEv4J-13" style="rounded=0;orthogonalLoop=1;jettySize=auto;html=1;exitX=0.5;exitY=1;exitDx=0;exitDy=0;entryX=0.5;entryY=0;entryDx=0;entryDy=0;startArrow=classic;startFill=1;" parent="1" source="t32K_nqp5lFoHQ5uEv4J-3" target="t32K_nqp5lFoHQ5uEv4J-1" edge="1">
          <mxGeometry relative="1" as="geometry">
            <mxPoint x="440" y="320" as="targetPoint" />
          </mxGeometry>
        </mxCell>
        <mxCell id="7G6fiu3_6PxhdW2tJC55-5" style="edgeStyle=none;rounded=0;orthogonalLoop=1;jettySize=auto;html=1;exitX=1;exitY=0.5;exitDx=0;exitDy=0;entryX=0;entryY=0.5;entryDx=0;entryDy=0;startArrow=classic;startFill=1;" edge="1" parent="1" source="t32K_nqp5lFoHQ5uEv4J-3" target="7G6fiu3_6PxhdW2tJC55-1">
          <mxGeometry relative="1" as="geometry" />
        </mxCell>
        <mxCell id="7G6fiu3_6PxhdW2tJC55-6" style="edgeStyle=none;rounded=0;orthogonalLoop=1;jettySize=auto;html=1;exitX=1;exitY=0.75;exitDx=0;exitDy=0;entryX=0;entryY=0.5;entryDx=0;entryDy=0;startArrow=classic;startFill=1;" edge="1" parent="1" source="t32K_nqp5lFoHQ5uEv4J-3" target="t32K_nqp5lFoHQ5uEv4J-2">
          <mxGeometry relative="1" as="geometry" />
        </mxCell>
        <mxCell id="7G6fiu3_6PxhdW2tJC55-7" style="edgeStyle=none;rounded=0;orthogonalLoop=1;jettySize=auto;html=1;exitX=1;exitY=1;exitDx=0;exitDy=0;entryX=0;entryY=0;entryDx=0;entryDy=0;startArrow=classic;startFill=1;" edge="1" parent="1" source="t32K_nqp5lFoHQ5uEv4J-3" target="t32K_nqp5lFoHQ5uEv4J-4">
          <mxGeometry relative="1" as="geometry" />
        </mxCell>
        <mxCell id="t32K_nqp5lFoHQ5uEv4J-3" value="&lt;font style=&quot;font-size: 11px;&quot;&gt;API Gateway&lt;/font&gt;" style="rounded=1;whiteSpace=wrap;html=1;" parent="1" vertex="1">
          <mxGeometry x="400" y="200" width="80" height="80" as="geometry" />
        </mxCell>
        <mxCell id="t32K_nqp5lFoHQ5uEv4J-4" value="&lt;font style=&quot;font-size: 11px;&quot;&gt;Service Discovery&lt;/font&gt;" style="rounded=1;whiteSpace=wrap;html=1;" parent="1" vertex="1">
          <mxGeometry x="600" y="440" width="80" height="80" as="geometry" />
        </mxCell>
        <mxCell id="t32K_nqp5lFoHQ5uEv4J-5" value="&lt;font style=&quot;font-size: 11px;&quot;&gt;Redis Cache&lt;/font&gt;" style="rounded=1;whiteSpace=wrap;html=1;" parent="1" vertex="1">
          <mxGeometry x="260" y="220" width="80" height="40" as="geometry" />
        </mxCell>
        <mxCell id="t32K_nqp5lFoHQ5uEv4J-21" style="edgeStyle=none;rounded=0;orthogonalLoop=1;jettySize=auto;html=1;exitX=0.5;exitY=0;exitDx=0;exitDy=0;entryX=0.5;entryY=1;entryDx=0;entryDy=0;startArrow=classic;startFill=1;" parent="1" source="t32K_nqp5lFoHQ5uEv4J-6" target="t32K_nqp5lFoHQ5uEv4J-1" edge="1">
          <mxGeometry relative="1" as="geometry" />
        </mxCell>
        <mxCell id="t32K_nqp5lFoHQ5uEv4J-6" value="&lt;font style=&quot;font-size: 11px;&quot;&gt;User DB&lt;/font&gt;" style="rounded=1;whiteSpace=wrap;html=1;" parent="1" vertex="1">
          <mxGeometry x="400" y="480" width="80" height="40" as="geometry" />
        </mxCell>
        <mxCell id="t32K_nqp5lFoHQ5uEv4J-7" value="&lt;font style=&quot;font-size: 11px;&quot;&gt;Image DB&lt;/font&gt;" style="rounded=1;whiteSpace=wrap;html=1;" parent="1" vertex="1">
          <mxGeometry x="720" y="340" width="80" height="40" as="geometry" />
        </mxCell>
        <mxCell id="t32K_nqp5lFoHQ5uEv4J-24" value="http" style="text;html=1;strokeColor=none;fillColor=none;align=center;verticalAlign=middle;whiteSpace=wrap;rounded=0;" parent="1" vertex="1">
          <mxGeometry x="360" y="230" width="30" height="10" as="geometry" />
        </mxCell>
        <mxCell id="t32K_nqp5lFoHQ5uEv4J-29" value="gRPC" style="text;html=1;strokeColor=none;fillColor=none;align=center;verticalAlign=middle;whiteSpace=wrap;rounded=0;" parent="1" vertex="1">
          <mxGeometry x="440" y="310" width="40" height="20" as="geometry" />
        </mxCell>
        <mxCell id="t32K_nqp5lFoHQ5uEv4J-30" value="http" style="text;html=1;strokeColor=none;fillColor=none;align=center;verticalAlign=middle;whiteSpace=wrap;rounded=0;" parent="1" vertex="1">
          <mxGeometry x="440" y="450" width="40" height="20" as="geometry" />
        </mxCell>
        <mxCell id="RMepHzUNi7ZDpXy9hhpQ-2" value="http" style="text;html=1;strokeColor=none;fillColor=none;align=center;verticalAlign=middle;whiteSpace=wrap;rounded=0;rotation=45;" parent="1" vertex="1">
          <mxGeometry x="340" y="300" width="40" height="20" as="geometry" />
        </mxCell>
        <mxCell id="7G6fiu3_6PxhdW2tJC55-9" style="edgeStyle=none;rounded=0;orthogonalLoop=1;jettySize=auto;html=1;exitX=0.5;exitY=1;exitDx=0;exitDy=0;entryX=0.5;entryY=0;entryDx=0;entryDy=0;startArrow=classic;startFill=1;" edge="1" parent="1" source="7G6fiu3_6PxhdW2tJC55-1" target="t32K_nqp5lFoHQ5uEv4J-2">
          <mxGeometry relative="1" as="geometry" />
        </mxCell>
        <mxCell id="7G6fiu3_6PxhdW2tJC55-11" style="edgeStyle=orthogonalEdgeStyle;rounded=0;orthogonalLoop=1;jettySize=auto;html=1;exitX=1;exitY=0.75;exitDx=0;exitDy=0;entryX=1;entryY=0.5;entryDx=0;entryDy=0;startArrow=classic;startFill=1;" edge="1" parent="1" source="7G6fiu3_6PxhdW2tJC55-1" target="t32K_nqp5lFoHQ5uEv4J-4">
          <mxGeometry relative="1" as="geometry">
            <Array as="points">
              <mxPoint x="840" y="260" />
              <mxPoint x="840" y="480" />
            </Array>
          </mxGeometry>
        </mxCell>
        <mxCell id="7G6fiu3_6PxhdW2tJC55-21" style="edgeStyle=orthogonalEdgeStyle;rounded=0;orthogonalLoop=1;jettySize=auto;html=1;exitX=1;exitY=0.25;exitDx=0;exitDy=0;entryX=0;entryY=0.5;entryDx=0;entryDy=0;startArrow=classic;startFill=1;" edge="1" parent="1" source="7G6fiu3_6PxhdW2tJC55-1" target="7G6fiu3_6PxhdW2tJC55-20">
          <mxGeometry relative="1" as="geometry" />
        </mxCell>
        <mxCell id="7G6fiu3_6PxhdW2tJC55-1" value="&lt;font style=&quot;font-size: 11px;&quot;&gt;Feed service&lt;/font&gt;" style="rounded=1;whiteSpace=wrap;html=1;" vertex="1" parent="1">
          <mxGeometry x="600" y="200" width="80" height="80" as="geometry" />
        </mxCell>
        <mxCell id="7G6fiu3_6PxhdW2tJC55-12" value="http" style="text;html=1;strokeColor=none;fillColor=none;align=center;verticalAlign=middle;whiteSpace=wrap;rounded=0;" vertex="1" parent="1">
          <mxGeometry x="840" y="355" width="30" height="10" as="geometry" />
        </mxCell>
        <mxCell id="7G6fiu3_6PxhdW2tJC55-13" value="http" style="text;html=1;strokeColor=none;fillColor=none;align=center;verticalAlign=middle;whiteSpace=wrap;rounded=0;" vertex="1" parent="1">
          <mxGeometry x="535" y="345" width="30" height="10" as="geometry" />
        </mxCell>
        <mxCell id="7G6fiu3_6PxhdW2tJC55-14" value="http" style="text;html=1;strokeColor=none;fillColor=none;align=center;verticalAlign=middle;whiteSpace=wrap;rounded=0;" vertex="1" parent="1">
          <mxGeometry x="530" y="420" width="30" height="10" as="geometry" />
        </mxCell>
        <mxCell id="7G6fiu3_6PxhdW2tJC55-15" value="gRPC" style="text;html=1;strokeColor=none;fillColor=none;align=center;verticalAlign=middle;whiteSpace=wrap;rounded=0;" vertex="1" parent="1">
          <mxGeometry x="650" y="290" width="40" height="20" as="geometry" />
        </mxCell>
        <mxCell id="7G6fiu3_6PxhdW2tJC55-16" value="gRPC" style="text;html=1;strokeColor=none;fillColor=none;align=center;verticalAlign=middle;whiteSpace=wrap;rounded=0;" vertex="1" parent="1">
          <mxGeometry x="520" y="220" width="40" height="20" as="geometry" />
        </mxCell>
        <mxCell id="7G6fiu3_6PxhdW2tJC55-17" value="gRPC" style="text;html=1;strokeColor=none;fillColor=none;align=center;verticalAlign=middle;whiteSpace=wrap;rounded=0;" vertex="1" parent="1">
          <mxGeometry x="530" y="290" width="40" height="20" as="geometry" />
        </mxCell>
        <mxCell id="7G6fiu3_6PxhdW2tJC55-19" value="http" style="text;html=1;strokeColor=none;fillColor=none;align=center;verticalAlign=middle;whiteSpace=wrap;rounded=0;" vertex="1" parent="1">
          <mxGeometry x="690" y="345" width="30" height="10" as="geometry" />
        </mxCell>
        <mxCell id="7G6fiu3_6PxhdW2tJC55-20" value="&lt;font style=&quot;font-size: 11px;&quot;&gt;Analytics DB&lt;br&gt;&lt;/font&gt;" style="rounded=1;whiteSpace=wrap;html=1;" vertex="1" parent="1">
          <mxGeometry x="720" y="200" width="80" height="40" as="geometry" />
        </mxCell>
        <mxCell id="7G6fiu3_6PxhdW2tJC55-22" value="http" style="text;html=1;strokeColor=none;fillColor=none;align=center;verticalAlign=middle;whiteSpace=wrap;rounded=0;" vertex="1" parent="1">
          <mxGeometry x="687" y="206" width="30" height="10" as="geometry" />
        </mxCell>
      </root>
    </mxGraphModel>
  </diagram>
</mxfile>
